<mxfile host="app.diagrams.net" modified="2024-05-26T22:52:47.273Z" agent="Mozilla/5.0 (Windows NT 10.0; Win64; x64) AppleWebKit/537.36 (KHTML, like Gecko) Chrome/123.0.0.0 Safari/537.36" etag="M4fPh-FYYhBDQF4QQjMF" version="24.4.7" type="google">
  <diagram id="-QFXt2pcldaEeyL7kEvz" name="PÃ¡gina-1">
    <mxGraphModel dx="880" dy="468" grid="1" gridSize="10" guides="1" tooltips="1" connect="1" arrows="1" fold="1" page="1" pageScale="1" pageWidth="827" pageHeight="1169" math="0" shadow="0">
      <root>
        <mxCell id="0" />
        <mxCell id="1" parent="0" />
        <mxCell id="xX9OXx0pwGZmtSBmsd3q-2" style="edgeStyle=orthogonalEdgeStyle;rounded=0;orthogonalLoop=1;jettySize=auto;html=1;exitX=0.5;exitY=1;exitDx=0;exitDy=0;" parent="1" edge="1">
          <mxGeometry relative="1" as="geometry">
            <mxPoint x="400" y="190" as="targetPoint" />
            <mxPoint x="400" y="140" as="sourcePoint" />
          </mxGeometry>
        </mxCell>
        <mxCell id="xX9OXx0pwGZmtSBmsd3q-4" style="edgeStyle=orthogonalEdgeStyle;rounded=0;orthogonalLoop=1;jettySize=auto;html=1;exitX=0.5;exitY=1;exitDx=0;exitDy=0;" parent="1" source="xX9OXx0pwGZmtSBmsd3q-3" edge="1">
          <mxGeometry relative="1" as="geometry">
            <mxPoint x="400" y="330" as="targetPoint" />
          </mxGeometry>
        </mxCell>
        <mxCell id="xX9OXx0pwGZmtSBmsd3q-3" value="&lt;div&gt;INGRESAR NOTA 1 (INT)&lt;br&gt;&lt;/div&gt;&lt;div&gt;INGRESAR NOTA 2 (INT)&lt;br&gt;&lt;/div&gt;&lt;div&gt;INGRESAR NOTA 3 (INT)&lt;br&gt;&lt;/div&gt;&lt;div&gt;INGRESAR NOTA 4 (INT)&lt;br&gt;&lt;/div&gt;&lt;div&gt;INGRESAR NOTA 5 (INT)&lt;br&gt;&lt;/div&gt;" style="shape=parallelogram;perimeter=parallelogramPerimeter;whiteSpace=wrap;html=1;fixedSize=1;" parent="1" vertex="1">
          <mxGeometry x="305" y="190" width="190" height="110" as="geometry" />
        </mxCell>
        <mxCell id="xX9OXx0pwGZmtSBmsd3q-6" style="edgeStyle=orthogonalEdgeStyle;rounded=0;orthogonalLoop=1;jettySize=auto;html=1;exitX=0.5;exitY=1;exitDx=0;exitDy=0;" parent="1" source="xX9OXx0pwGZmtSBmsd3q-5" edge="1">
          <mxGeometry relative="1" as="geometry">
            <mxPoint x="395" y="510" as="targetPoint" />
          </mxGeometry>
        </mxCell>
        <mxCell id="xX9OXx0pwGZmtSBmsd3q-5" value="PROMEDIO = (NOTA1 + NOTA2+NOTA3+ NOTA4+NOTA5) / 5" style="whiteSpace=wrap;html=1;aspect=fixed;" parent="1" vertex="1">
          <mxGeometry x="320" y="330" width="150" height="150" as="geometry" />
        </mxCell>
        <mxCell id="xX9OXx0pwGZmtSBmsd3q-8" style="edgeStyle=orthogonalEdgeStyle;rounded=0;orthogonalLoop=1;jettySize=auto;html=1;" parent="1" edge="1">
          <mxGeometry relative="1" as="geometry">
            <mxPoint x="395" y="620" as="targetPoint" />
            <mxPoint x="395" y="570" as="sourcePoint" />
          </mxGeometry>
        </mxCell>
        <mxCell id="xX9OXx0pwGZmtSBmsd3q-10" value="INICIO" style="rounded=1;whiteSpace=wrap;html=1;" parent="1" vertex="1">
          <mxGeometry x="340" y="80" width="120" height="60" as="geometry" />
        </mxCell>
        <mxCell id="xX9OXx0pwGZmtSBmsd3q-11" value="FIN" style="rounded=1;whiteSpace=wrap;html=1;" parent="1" vertex="1">
          <mxGeometry x="335" y="620" width="120" height="60" as="geometry" />
        </mxCell>
        <mxCell id="b3wCi30_c3rOQd7VRVYK-1" value="MOSTRAR PROMEDIO" style="shape=parallelogram;perimeter=parallelogramPerimeter;whiteSpace=wrap;html=1;fixedSize=1;" vertex="1" parent="1">
          <mxGeometry x="335" y="510" width="120" height="60" as="geometry" />
        </mxCell>
      </root>
    </mxGraphModel>
  </diagram>
</mxfile>
